<?xml version = "1.0" encoding = "UTF-8" ?>
<svg width = "350.0" height = "350.0">
<rect x="0" y="0" width="350.0" height="350.0" style="fill:rgb(248,248,255);stroke-width:0;stroke:rgb(0,0,0)"/>
<line x1="175.0" y1="25.0" x2="45.0961894323342" y2="99.99999999999999" stroke="black" stroke-width="2" />
<line x1="175.0" y1="25.0" x2="45.0961894323342" y2="249.99999999999997" stroke="black" stroke-width="2" />
<circle cx="175.0" cy="25.0" r="20" stroke="black" stroke-width="3" fill="white" />
<text fill="black" font-family="sans-serif" font-size="20" x="175.0" y="31.0"
text-anchor="middle">1</text>
<line x1="45.0961894323342" y1="99.99999999999999" x2="45.0961894323342" y2="249.99999999999997" stroke="black" stroke-width="2" />
<line x1="45.0961894323342" y1="99.99999999999999" x2="174.99999999999997" y2="325.0" stroke="black" stroke-width="2" />
<line x1="45.0961894323342" y1="99.99999999999999" x2="304.9038105676658" y2="250.00000000000006" stroke="black" stroke-width="2" />
<circle cx="45.0961894323342" cy="99.99999999999999" r="20" stroke="black" stroke-width="3" fill="white" />
<text fill="black" font-family="sans-serif" font-size="20" x="45.0961894323342" y="105.99999999999999"
text-anchor="middle">2</text>
<line x1="45.0961894323342" y1="249.99999999999997" x2="304.9038105676658" y2="250.00000000000006" stroke="black" stroke-width="2" />
<circle cx="45.0961894323342" cy="249.99999999999997" r="20" stroke="black" stroke-width="3" fill="white" />
<text fill="black" font-family="sans-serif" font-size="20" x="45.0961894323342" y="255.99999999999997"
text-anchor="middle">3</text>
<line x1="174.99999999999997" y1="325.0" x2="304.9038105676658" y2="250.00000000000006" stroke="black" stroke-width="2" />
<line x1="174.99999999999997" y1="325.0" x2="304.90381056766586" y2="100.0000000000001" stroke="black" stroke-width="2" />
<circle cx="174.99999999999997" cy="325.0" r="20" stroke="black" stroke-width="3" fill="white" />
<text fill="black" font-family="sans-serif" font-size="20" x="174.99999999999997" y="331.0"
text-anchor="middle">4</text>
<line x1="304.9038105676658" y1="250.00000000000006" x2="304.90381056766586" y2="100.0000000000001" stroke="black" stroke-width="2" />
<circle cx="304.9038105676658" cy="250.00000000000006" r="20" stroke="black" stroke-width="3" fill="white" />
<text fill="black" font-family="sans-serif" font-size="20" x="304.9038105676658" y="256.00000000000006"
text-anchor="middle">5</text>
<circle cx="304.90381056766586" cy="100.0000000000001" r="20" stroke="black" stroke-width="3" fill="white" />
<text fill="black" font-family="sans-serif" font-size="20" x="304.90381056766586" y="106.0000000000001"
text-anchor="middle">6</text>

<line x1="175.0" y1="25.0" x2="45.0961894323342" y2="99.99999999999999" stroke="darkorchid" stroke-width="6" />
<circle cx="175.0" cy="25.0" r="20" stroke="darkorchid" stroke-width="4" fill="forestgreen" />
<text fill="white" font-family="sans-serif" font-size="20" x="175.0" y="31.0"
text-anchor="middle">1</text>
<text fill="red" font-family="sans-serif" font-size="22" x="110.0480947161671" y="62.49999999999999"
text-anchor="middle">22.0</text>
<line x1="45.0961894323342" y1="99.99999999999999" x2="304.9038105676658" y2="250.00000000000006" stroke="darkorchid" stroke-width="6" />
<circle cx="45.0961894323342" cy="99.99999999999999" r="20" stroke="darkorchid" stroke-width="3" fill="darkorchid" />
<text fill="white" font-family="sans-serif" font-size="20" x="45.0961894323342" y="105.99999999999999"
text-anchor="middle">2</text>
<text fill="red" font-family="sans-serif" font-size="22" x="175.0" y="175.00000000000003"
text-anchor="middle">9.0</text>
<line x1="304.9038105676658" y1="250.00000000000006" x2="174.99999999999997" y2="325.0" stroke="darkorchid" stroke-width="6" />
<circle cx="304.9038105676658" cy="250.00000000000006" r="20" stroke="darkorchid" stroke-width="3" fill="darkorchid" />
<text fill="white" font-family="sans-serif" font-size="20" x="304.9038105676658" y="256.00000000000006"
text-anchor="middle">5</text>
<text fill="red" font-family="sans-serif" font-size="22" x="239.9519052838329" y="287.5"
text-anchor="middle">78.0</text>
<circle cx="174.99999999999997" cy="325.0" r="20" stroke="darkorchid" stroke-width="4" fill="gold" />
<text fill="white" font-family="sans-serif" font-size="20" x="174.99999999999997" y="331.0"
text-anchor="middle">4</text>

</svg>
